<svg xmlns="http://www.w3.org/2000/svg" xmlns:xlink="http://www.w3.org/1999/xlink" width="205" height="181" viewBox="0 0 205 181"><defs><style>.a{fill:rgba(252,137,107,0.93);stroke:#967675;}.b{fill:#967675;}.b,.h{opacity:0.99;}.c,.h,.l{fill:#fc896b;}.c,.e{stroke:#fff;}.c{stroke-width:0.3px;}.d,.e{fill:none;}.f,.n{fill:#fff;}.f{font-size:3px;}.f,.i{font-family:SegoeUI, Segoe UI;}.g{opacity:0.6;}.i{font-size:5px;}.j,.k{fill:#ecedee;}.k{fill-rule:evenodd;}.m{fill:rgba(0,0,0,0.86);font-size:11px;font-family:SegoeUI-Bold, Segoe UI;font-weight:700;}.o{stroke:none;}.p{filter:url(#m);}.q{filter:url(#k);}.r{filter:url(#i);}.s{filter:url(#g);}.t{filter:url(#e);}.u{filter:url(#c);}.v{filter:url(#a);}</style><filter id="a" x="28" y="0" width="120" height="176.5" filterUnits="userSpaceOnUse"><feOffset dx="-5" dy="5" input="SourceAlpha"/><feGaussianBlur stdDeviation="3" result="b"/><feFlood flood-opacity="0.678"/><feComposite operator="in" in2="b"/><feComposite in="SourceGraphic"/></filter><filter id="c" x="118" y="100" width="87" height="36" filterUnits="userSpaceOnUse"><feOffset dx="15" dy="10" input="SourceAlpha"/><feGaussianBlur stdDeviation="3" result="d"/><feFlood flood-opacity="0.761"/><feComposite operator="in" in2="d"/><feComposite in="SourceGraphic"/></filter><filter id="e" x="67" y="1" width="65.5" height="66.333" filterUnits="userSpaceOnUse"><feOffset dx="-5" dy="5" input="SourceAlpha"/><feGaussianBlur stdDeviation="3" result="f"/><feFlood flood-opacity="0.678"/><feComposite operator="in" in2="f"/><feComposite in="SourceGraphic"/></filter><filter id="g" x="58" y="10" width="58" height="58" filterUnits="userSpaceOnUse"><feOffset dx="-5" dy="5" input="SourceAlpha"/><feGaussianBlur stdDeviation="3" result="h"/><feFlood flood-opacity="0.678"/><feComposite operator="in" in2="h"/><feComposite in="SourceGraphic"/></filter><filter id="i" x="118" y="120" width="87" height="36" filterUnits="userSpaceOnUse"><feOffset dx="15" dy="10" input="SourceAlpha"/><feGaussianBlur stdDeviation="3" result="j"/><feFlood flood-opacity="0.761"/><feComposite operator="in" in2="j"/><feComposite in="SourceGraphic"/></filter><filter id="k" x="118" y="140" width="87" height="36" filterUnits="userSpaceOnUse"><feOffset dx="15" dy="10" input="SourceAlpha"/><feGaussianBlur stdDeviation="3" result="l"/><feFlood flood-opacity="0.761"/><feComposite operator="in" in2="l"/><feComposite in="SourceGraphic"/></filter><filter id="m" x="0" y="59" width="200" height="46" filterUnits="userSpaceOnUse"><feOffset dx="10" dy="5" input="SourceAlpha"/><feGaussianBlur stdDeviation="3" result="n"/><feFlood/><feComposite operator="in" in2="n"/><feComposite in="SourceGraphic"/></filter></defs><g transform="translate(-79 -277)"><g class="a" transform="translate(100 393)"><rect class="o" width="78" height="65"/><rect class="d" x="0.5" y="0.5" width="77" height="64"/></g><g transform="translate(541 -471)"><g class="v" transform="matrix(1, 0, 0, 1, -462, 748)"><rect class="b" width="102" height="158.5" transform="translate(42 4)"/></g></g><g class="u" transform="matrix(1, 0, 0, 1, 79, 277)"><g class="c" transform="translate(118 100)"><rect class="o" width="63" height="17"/><rect class="d" x="0.15" y="0.15" width="62.7" height="16.7"/></g></g><g transform="translate(-76 226)"><g transform="translate(-427 -3014)"><g transform="translate(636 3181)"><rect class="d" width="16" height="16"/></g><g class="e" transform="translate(632 3177)"><rect class="o" width="19" height="20" rx="2"/><rect class="d" x="0.5" y="0.5" width="18" height="19" rx="1.5"/></g></g><text class="f" transform="translate(209 188)"><tspan x="0" y="0">Link Bulding</tspan></text></g><g transform="translate(-82 197)"><g transform="translate(-72 -2985)"><g class="e" transform="translate(318 3177)"><rect class="o" width="20" height="20" rx="1"/><rect class="d" x="0.5" y="0.5" width="19" height="19" rx="0.5"/></g></g><text class="f" transform="translate(248 217)"><tspan x="0" y="0">Content</tspan></text></g><g class="g" transform="translate(580 -470)"><g class="t" transform="matrix(1, 0, 0, 1, -501, 747)"><rect class="h" width="47.5" height="48.333" transform="translate(81 5)"/></g></g><g transform="translate(571 -461)"><g class="s" transform="matrix(1, 0, 0, 1, -492, 738)"><rect class="b" width="40" height="40" transform="translate(72 14)"/></g></g><g class="r" transform="matrix(1, 0, 0, 1, 79, 277)"><g class="c" transform="translate(118 120)"><rect class="o" width="63" height="17"/><rect class="d" x="0.15" y="0.15" width="62.7" height="16.7"/></g></g><text class="i" transform="translate(204 388)"><tspan x="0" y="0">Multi platform softwire</tspan></text><text class="i" transform="translate(207 408)"><tspan x="0" y="0">User friendly</tspan></text><g class="q" transform="matrix(1, 0, 0, 1, 79, 277)"><g class="c" transform="translate(118 140)"><rect class="o" width="63" height="17"/><rect class="d" x="0.15" y="0.15" width="62.7" height="16.7"/></g></g><text class="i" transform="translate(206 428)"><tspan x="0" y="0">Dart</tspan></text><rect class="j" width="5" height="5" rx="2.5" transform="translate(160 302)"/><rect class="j" width="18" height="2" rx="1" transform="translate(166 302)"/><rect class="j" width="18" height="2" rx="1" transform="translate(166 305)"/><rect class="j" width="18" height="4" rx="2" transform="translate(160 309)"/><rect class="j" width="24" height="4" rx="2" transform="translate(160 314)"/><g transform="translate(133 394)"><path class="k" d="M3.125,6.25c.313,0,.438.188.188.438l-.937.938A3.742,3.742,0,0,0,5,8.75,3.78,3.78,0,0,0,8.75,5.5.632.632,0,0,1,10,5.625V5.75A5,5,0,0,1,5,10,5.226,5.226,0,0,1,1.438,8.563l-1,1C.188,9.813,0,9.688,0,9.375V6.563A.3.3,0,0,1,.313,6.25Zm3.75-2.5c-.312,0-.437-.187-.187-.437l.938-.937A3.742,3.742,0,0,0,5,1.25,3.78,3.78,0,0,0,1.25,4.5.594.594,0,0,1,.625,5,.59.59,0,0,1,0,4.375V4.25A5,5,0,0,1,5,0,5.226,5.226,0,0,1,8.563,1.438l1-1c.25-.25.438-.125.438.188V3.438a.3.3,0,0,1-.312.313Z"/></g><g transform="translate(169 394)"><rect class="d" width="4" height="4"/><path class="j" d="M6.25,8.125A1.875,1.875,0,1,1,8.125,10,1.876,1.876,0,0,1,6.25,8.125ZM0,8.125A1.875,1.875,0,1,1,1.875,10,1.875,1.875,0,0,1,0,8.125ZM6.25,1.875A1.875,1.875,0,1,1,8.125,3.75,1.875,1.875,0,0,1,6.25,1.875ZM0,1.875A1.875,1.875,0,1,1,1.875,3.75,1.875,1.875,0,0,1,0,1.875Z"/></g><g class="p" transform="matrix(1, 0, 0, 1, 79, 277)"><path class="l" d="M0,0H181V28H0Z" transform="translate(0 63)"/></g><text class="m" transform="translate(107 360)"><tspan x="0" y="0">Web / App Development</tspan></text><rect class="n" width="1" height="23" transform="translate(221 289)"/></g></svg>