<svg xmlns="http://www.w3.org/2000/svg" xmlns:xlink="http://www.w3.org/1999/xlink" width="65" height="65" viewBox="0 0 65 65"><defs><style>.a{fill:url(#a);}.b{fill:#daa520;}.c{font-size:21px;font-family:Impact;}.d{fill:none;stroke:#707070;}</style><linearGradient id="a" x1="0.5" x2="0.5" y2="1" gradientUnits="objectBoundingBox"><stop offset="0" stop-color="#12a58c"/><stop offset="1" stop-color="#640c0c"/></linearGradient></defs><g transform="translate(-23 -21)"><path class="a" d="M22,0,32.667,6.667,43,0A22,22,0,0,1,65,22L58.667,32.333,65,43A22,22,0,0,1,43,65L32.667,57.333,22,65A22,22,0,0,1,0,43s8-5.417,8-10.667S0,22,0,22A22,22,0,0,1,22,0Z" transform="translate(23 21)"/><rect class="b" width="59" height="59" rx="29.5" transform="translate(25 23)"/><text class="c" transform="translate(28 61)"><tspan x="0" y="0">BUTAO</tspan></text><path class="d" d="M537.333-289.667" transform="translate(-492 335)"/></g></svg>