<svg xmlns="http://www.w3.org/2000/svg" xmlns:xlink="http://www.w3.org/1999/xlink" width="15" height="15" viewBox="0 0 15 15"><defs><clipPath id="a"><rect width="15" height="15" fill="none"/></clipPath></defs><g clip-path="url(#a)"><rect width="14" height="14" fill="none"/><path d="M8.705,10.714l1.607-1.473a.492.492,0,0,1,.4-.134l.268.134,3.75,1.741c.268.134.268.268.268.536a3.4,3.4,0,0,1-1.071,2.411A3.837,3.837,0,0,1,11.116,15a8.16,8.16,0,0,1-3.75-.937,17.557,17.557,0,0,1-3.75-2.679A22.812,22.812,0,0,1,1.607,8.438,18.512,18.512,0,0,1,.268,5.491,8.242,8.242,0,0,1,0,2.946,3.519,3.519,0,0,1,.938.938,4.073,4.073,0,0,1,3.482,0a.7.7,0,0,1,.536.268l2.009,3.75a.468.468,0,0,0,.134.268.492.492,0,0,1-.134.4L4.286,6.295a.6.6,0,0,0,0,.67A12.789,12.789,0,0,0,5.893,9.107a13.523,13.523,0,0,0,2.143,1.741C8.3,10.982,8.571,10.982,8.705,10.714Z" transform="translate(0 0)" fill="#fff"/></g></svg>