<svg xmlns="http://www.w3.org/2000/svg" xmlns:xlink="http://www.w3.org/1999/xlink" width="15" height="15" viewBox="0 0 15 15"><defs><clipPath id="a"><rect width="15" height="15" fill="none"/></clipPath></defs><g clip-path="url(#a)"><rect width="14" height="14" transform="translate(0 0)" fill="none"/><path d="M5.673,8.153A2.4,2.4,0,0,0,8.078,5.748,2.475,2.475,0,0,0,5.673,3.257,2.4,2.4,0,0,0,3.268,5.662,2.535,2.535,0,0,0,5.673,8.153ZM1.636,1.625A5.709,5.709,0,0,1,9.71,9.7L5.673,13.736,1.636,9.7A5.865,5.865,0,0,1,1.636,1.625Z" transform="translate(0.975 0.05)" fill="#fff" fill-rule="evenodd"/></g></svg>