<svg xmlns="http://www.w3.org/2000/svg" xmlns:xlink="http://www.w3.org/1999/xlink" width="15" height="15" viewBox="0 0 15 15"><defs><clipPath id="a"><rect width="15" height="15" fill="none"/></clipPath></defs><g clip-path="url(#a)"><rect width="14" height="14" fill="none"/><path d="M42.36,13.167A7.959,7.959,0,0,0,50.39,5.136V4.753A6.217,6.217,0,0,0,51.767,3.3a6.349,6.349,0,0,1-1.606.459,2.976,2.976,0,0,0,1.224-1.53,7.015,7.015,0,0,1-1.759.688A2.731,2.731,0,0,0,47.56,2a2.874,2.874,0,0,0-2.83,2.83,1.491,1.491,0,0,0,.076.612,7.908,7.908,0,0,1-5.813-2.983,2.929,2.929,0,0,0-.382,1.453,3.039,3.039,0,0,0,1.224,2.371,2.578,2.578,0,0,1-1.3-.382h0A2.8,2.8,0,0,0,40.83,8.654a2.358,2.358,0,0,1-.765.076,1.3,1.3,0,0,1-.535-.076,2.9,2.9,0,0,0,2.677,1.989,5.775,5.775,0,0,1-3.518,1.224A2.117,2.117,0,0,1,38,11.79a7.219,7.219,0,0,0,4.36,1.377" transform="translate(-38)" fill="#fff" fill-rule="evenodd"/></g></svg>