<svg xmlns="http://www.w3.org/2000/svg" width="372" height="437" viewBox="0 0 372 437">
  <defs>
    <style>
      .cls-1 {
        fill: rgba(255,255,255,0);
        stroke: rgba(255,189,57,0);
        stroke-width: 3px;
      }

      .cls-10, .cls-2, .cls-7 {
        fill: #fff;
      }

      .cls-2 {
        font-size: 15px;
      }

      .cls-2, .cls-7 {
        font-family: SegoeUI, Segoe UI;
      }

      .cls-3, .cls-8 {
        fill: #ecedee;
      }

      .cls-4 {
        fill: rgba(255,189,57,0.26);
      }

      .cls-5, .cls-6 {
        fill: none;
      }

      .cls-6 {
        stroke: #fff;
      }

      .cls-7 {
        font-size: 3px;
      }

      .cls-8 {
        fill-rule: evenodd;
      }

      .cls-9 {
        fill: rgba(255,255,255,0.86);
        font-size: 29px;
        font-family: SegoeUI-Bold, Segoe UI;
        font-weight: 700;
      }

      .cls-11 {
        stroke: none;
      }
    </style>
  </defs>
  <g id="uiservices2" transform="translate(-488 -193)">
    <g id="Rectangle_1493" data-name="Rectangle 1493" class="cls-1" transform="translate(488 193)">
      <rect class="cls-11" width="372" height="437"/>
      <rect class="cls-5" x="1.5" y="1.5" width="369" height="434"/>
    </g>
    <text id="Multi_platform_softwire" data-name="Multi platform softwire" class="cls-2" transform="translate(694 394)"><tspan x="0" y="0">Multi platform softwire</tspan></text>
    <text id="User_friendly" data-name="User friendly" class="cls-2" transform="translate(763 442.25)"><tspan x="0" y="0">User friendly</tspan></text>
    <text id="Dart" class="cls-2" transform="translate(819 480.5)"><tspan x="0" y="0">Dart</tspan></text>
    <g id="Group_33" data-name="Group 33" transform="translate(4 -54)">
      <rect id="Rectangle_457" data-name="Rectangle 457" class="cls-3" width="21" height="20" rx="10" transform="translate(644 275)"/>
      <rect id="Rectangle_458" data-name="Rectangle 458" class="cls-3" width="37" height="4" rx="2" transform="translate(669.5 276)"/>
      <rect id="Rectangle_459" data-name="Rectangle 459" class="cls-3" width="36" height="2" rx="1" transform="translate(670.5 284.5)"/>
      <rect id="Rectangle_460" data-name="Rectangle 460" class="cls-3" width="63" height="7" rx="3.5" transform="translate(645 301.694)"/>
      <rect id="Rectangle_461" data-name="Rectangle 461" class="cls-3" width="64.5" height="7" rx="3.5" transform="translate(644 315.333)"/>
    </g>
    <g id="Group_38" data-name="Group 38" transform="translate(10 20)">
      <rect id="Rectangle_1479" data-name="Rectangle 1479" class="cls-4" width="78" height="243" transform="translate(508 364)"/>
      <g id="Group_34" data-name="Group 34" transform="translate(537 360)">
        <g id="Group_30" data-name="Group 30">
          <g id="Group_28" data-name="Group 28">
            <g id="Attachment" transform="translate(4 4)">
              <rect id="Rectangle_314" data-name="Rectangle 314" class="cls-5" width="16" height="16"/>
            </g>
            <g id="Rectangle_1474" data-name="Rectangle 1474" class="cls-6">
              <rect class="cls-11" width="19" height="20" rx="2"/>
              <rect class="cls-5" x="0.5" y="0.5" width="18" height="19" rx="1.5"/>
            </g>
          </g>
          <text id="Link_Bulding" data-name="Link Bulding" class="cls-7" transform="translate(4 25)"><tspan x="0" y="0">Link Bulding</tspan></text>
        </g>
        <g id="Refresh" transform="translate(4 5)">
          <path id="Path_189" data-name="Path 189" class="cls-8" d="M3.125,6.25c.313,0,.438.188.188.438l-.937.938A3.742,3.742,0,0,0,5,8.75,3.78,3.78,0,0,0,8.75,5.5.632.632,0,0,1,10,5.625V5.75A5,5,0,0,1,5,10,5.226,5.226,0,0,1,1.438,8.563l-1,1C.188,9.813,0,9.688,0,9.375V6.563A.3.3,0,0,1,.313,6.25Zm3.75-2.5c-.312,0-.437-.187-.187-.437l.938-.937A3.742,3.742,0,0,0,5,1.25,3.78,3.78,0,0,0,1.25,4.5.594.594,0,0,1,.625,5,.59.59,0,0,1,0,4.375V4.25A5,5,0,0,1,5,0,5.226,5.226,0,0,1,8.563,1.438l1-1c.25-.25.438-.125.438.188V3.438a.3.3,0,0,1-.312.313Z"/>
        </g>
      </g>
      <g id="Group_35" data-name="Group 35" transform="translate(572 360)">
        <g id="Group_29" data-name="Group 29">
          <g id="Group_21" data-name="Group 21">
            <g id="Rectangle_1474-2" data-name="Rectangle 1474" class="cls-6">
              <rect class="cls-11" width="20" height="20" rx="1"/>
              <rect class="cls-5" x="0.5" y="0.5" width="19" height="19" rx="0.5"/>
            </g>
          </g>
          <text id="Content" class="cls-7" transform="translate(2 25)"><tspan x="0" y="0">Content</tspan></text>
        </g>
        <g id="Options" transform="translate(5 5)">
          <rect id="Rectangle_981" data-name="Rectangle 981" class="cls-5" width="4" height="4"/>
          <path id="Union_62" data-name="Union 62" class="cls-3" d="M6.25,8.125A1.875,1.875,0,1,1,8.125,10,1.876,1.876,0,0,1,6.25,8.125ZM0,8.125A1.875,1.875,0,1,1,1.875,10,1.875,1.875,0,0,1,0,8.125ZM6.25,1.875A1.875,1.875,0,1,1,8.125,3.75,1.875,1.875,0,0,1,6.25,1.875ZM0,1.875A1.875,1.875,0,1,1,1.875,3.75,1.875,1.875,0,0,1,0,1.875Z"/>
        </g>
      </g>
    </g>
    <text id="Web_App_Development" data-name="Web / App Development" class="cls-9" transform="translate(505 331)"><tspan x="0" y="0">Web / App Development</tspan></text>
    <rect id="Rectangle_1491" data-name="Rectangle 1491" class="cls-10" width="1" height="23" transform="translate(833 218)"/>
  </g>
</svg>
