<svg xmlns="http://www.w3.org/2000/svg" xmlns:xlink="http://www.w3.org/1999/xlink" width="201" height="200" viewBox="0 0 201 200">
  <defs>
    <style>
      .cls-1, .cls-10, .cls-11, .cls-8 {
        fill: none;
      }

      .cls-2, .cls-3 {
        fill: #4d143e;
      }

      .cls-3 {
        stroke: #967675;
      }

      .cls-4, .cls-5 {
        fill: #967675;
      }

      .cls-4 {
        opacity: 0.99;
      }

      .cls-5, .cls-8 {
        stroke: #fff;
      }

      .cls-10, .cls-5 {
        stroke-width: 0.3px;
      }

      .cls-6 {
        fill: rgba(255,255,255,0.9);
        font-size: 11px;
        font-family: SegoeUI-Bold, Segoe UI;
        font-weight: 700;
      }

      .cls-7 {
        fill: #ecedee;
      }

      .cls-12, .cls-14, .cls-16, .cls-9 {
        fill: #fff;
      }

      .cls-9 {
        font-size: 3px;
      }

      .cls-12, .cls-14, .cls-9 {
        font-family: SegoeUI, Segoe UI;
      }

      .cls-10, .cls-11 {
        stroke: #fbfbfb;
      }

      .cls-11 {
        stroke-width: 0.5px;
      }

      .cls-12 {
        font-size: 9px;
      }

      .cls-13 {
        fill: rgba(255,255,255,0.8);
      }

      .cls-14 {
        font-size: 5px;
      }

      .cls-15 {
        clip-path: url(#clip-path);
      }

      .cls-17 {
        stroke: none;
      }

      .cls-18 {
        filter: url(#Rectangle_1486);
      }

      .cls-19 {
        filter: url(#Rectangle_1485);
      }

      .cls-20 {
        filter: url(#Rectangle_1484);
      }

      .cls-21 {
        filter: url(#sndpg_box1-2);
      }

      .cls-22 {
        filter: url(#Rectangle_1478);
      }

      .cls-23 {
        filter: url(#Path_279);
      }

      .cls-24 {
        filter: url(#sndpg_box1);
      }
    </style>
    <filter id="sndpg_box1" x="28" y="0" width="120" height="176.5" filterUnits="userSpaceOnUse">
      <feOffset dx="-5" dy="5" input="SourceAlpha"/>
      <feGaussianBlur stdDeviation="3" result="blur"/>
      <feFlood flood-opacity="0.678"/>
      <feComposite operator="in" in2="blur"/>
      <feComposite in="SourceGraphic"/>
    </filter>
    <filter id="Path_279" x="0" y="60" width="200" height="46" filterUnits="userSpaceOnUse">
      <feOffset dx="10" dy="5" input="SourceAlpha"/>
      <feGaussianBlur stdDeviation="3" result="blur-2"/>
      <feFlood/>
      <feComposite operator="in" in2="blur-2"/>
      <feComposite in="SourceGraphic"/>
    </filter>
    <filter id="Rectangle_1478" x="118" y="99" width="83" height="101" filterUnits="userSpaceOnUse">
      <feOffset dx="15" dy="10" input="SourceAlpha"/>
      <feGaussianBlur stdDeviation="3" result="blur-3"/>
      <feFlood flood-opacity="0.761"/>
      <feComposite operator="in" in2="blur-3"/>
      <feComposite in="SourceGraphic"/>
    </filter>
    <filter id="sndpg_box1-2" x="58" y="10" width="58" height="58" filterUnits="userSpaceOnUse">
      <feOffset dx="-5" dy="5" input="SourceAlpha"/>
      <feGaussianBlur stdDeviation="3" result="blur-4"/>
      <feFlood flood-opacity="0.678"/>
      <feComposite operator="in" in2="blur-4"/>
      <feComposite in="SourceGraphic"/>
    </filter>
    <filter id="Rectangle_1484" x="95" y="99" width="77" height="34" filterUnits="userSpaceOnUse">
      <feOffset dx="-5" dy="5" input="SourceAlpha"/>
      <feGaussianBlur stdDeviation="3" result="blur-5"/>
      <feFlood/>
      <feComposite operator="in" in2="blur-5"/>
      <feComposite in="SourceGraphic"/>
    </filter>
    <filter id="Rectangle_1485" x="95" y="120" width="77" height="34" filterUnits="userSpaceOnUse">
      <feOffset dx="-5" dy="5" input="SourceAlpha"/>
      <feGaussianBlur stdDeviation="3" result="blur-6"/>
      <feFlood/>
      <feComposite operator="in" in2="blur-6"/>
      <feComposite in="SourceGraphic"/>
    </filter>
    <filter id="Rectangle_1486" x="95" y="142" width="77" height="34" filterUnits="userSpaceOnUse">
      <feOffset dx="-5" dy="5" input="SourceAlpha"/>
      <feGaussianBlur stdDeviation="3" result="blur-7"/>
      <feFlood/>
      <feComposite operator="in" in2="blur-7"/>
      <feComposite in="SourceGraphic"/>
    </filter>
    <clipPath id="clip-path">
      <rect class="cls-1" width="3" height="15"/>
    </clipPath>
  </defs>
  <g id="uiservices1" transform="translate(-79 -57)">
    <rect id="Rectangle_1480" data-name="Rectangle 1480" class="cls-2" width="78" height="33" transform="translate(167 61)"/>
    <g id="Rectangle_1479" data-name="Rectangle 1479" class="cls-3" transform="translate(100 173)">
      <rect class="cls-17" width="78" height="65"/>
      <rect class="cls-1" x="0.5" y="0.5" width="77" height="64"/>
    </g>
    <g id="sndpg_box1-3" data-name="sndpg_box1" transform="translate(541 -691)">
      <g class="cls-24" transform="matrix(1, 0, 0, 1, -462, 748)">
        <path id="sndpg_box1-4" data-name="sndpg_box1" class="cls-4" d="M0,0H102V158.5H0Z" transform="translate(42 4)"/>
      </g>
    </g>
    <g class="cls-23" transform="matrix(1, 0, 0, 1, 79, 57)">
      <path id="Path_279-2" data-name="Path 279" class="cls-2" d="M0,0H181V28H0Z" transform="translate(0 64)"/>
    </g>
    <g class="cls-22" transform="matrix(1, 0, 0, 1, 79, 57)">
      <g id="Rectangle_1478-2" data-name="Rectangle 1478" class="cls-5" transform="translate(118 99)">
        <rect class="cls-17" width="59" height="82"/>
        <rect class="cls-1" x="0.15" y="0.15" width="58.7" height="81.7"/>
      </g>
    </g>
    <text id="User_Interface_Design" data-name="User Interface Design" class="cls-6" transform="translate(117 141)"><tspan x="0" y="0">User Interface Design</tspan></text>
    <g id="Group_30" data-name="Group 30" transform="translate(-76 6)">
      <g id="Group_28" data-name="Group 28" transform="translate(-427 -3014)">
        <g id="Attachment" transform="translate(636 3181)">
          <rect id="Rectangle_314" data-name="Rectangle 314" class="cls-1" width="16" height="16"/>
          <path id="Path_125" data-name="Path 125" class="cls-7" d="M3.675,10.5a3.311,3.311,0,0,1-2.45-1.05A3.38,3.38,0,0,1,0,6.825,3.511,3.511,0,0,1,.263,5.513a3.026,3.026,0,0,1,.613-1.05l1.75-1.75A2.109,2.109,0,0,1,4.2,2.1a2.391,2.391,0,0,1,1.662.7,2.247,2.247,0,0,1,.7,1.75A2.109,2.109,0,0,1,5.95,6.125L4.987,7a.668.668,0,0,1-.437.175A.938.938,0,0,1,4.025,7a1.244,1.244,0,0,1-.175-.525,1.244,1.244,0,0,1,.175-.525l.962-.963a.529.529,0,0,0,.262-.525,1.069,1.069,0,0,0-.35-.788A1.02,1.02,0,0,0,4.288,3.5a1.265,1.265,0,0,0-.613.175L1.837,5.425a2.421,2.421,0,0,0-.437,1.4,2.56,2.56,0,0,0,.7,1.662,1.816,1.816,0,0,0,.875.525A1.513,1.513,0,0,0,3.85,9.1c.263-.087.525-.087.7-.175a1.83,1.83,0,0,0,.525-.35l3.5-3.5a1.919,1.919,0,0,0,.613-1.487A2.292,2.292,0,0,0,8.4,1.925,3.9,3.9,0,0,0,7.35,1.4H6.562a1.853,1.853,0,0,0-.612.262,1.11,1.11,0,0,1-.525.088.581.581,0,0,1-.437-.35C4.9,1.313,4.9,1.138,4.9.875A1.536,1.536,0,0,1,5.25.438,3.446,3.446,0,0,1,7,0,3.239,3.239,0,0,1,9.275.875,3.692,3.692,0,0,1,10.5,3.5a3.424,3.424,0,0,1-.963,2.538l-3.5,3.5A3.231,3.231,0,0,1,3.675,10.5Z"/>
        </g>
        <g id="Rectangle_1474" data-name="Rectangle 1474" class="cls-8" transform="translate(632 3177)">
          <rect class="cls-17" width="19" height="20" rx="2"/>
          <rect class="cls-1" x="0.5" y="0.5" width="18" height="19" rx="1.5"/>
        </g>
      </g>
      <text id="Design" class="cls-9" transform="translate(209 188)"><tspan x="0" y="0">Design</tspan></text>
    </g>
    <g id="Group_29" data-name="Group 29" transform="translate(-82 -23)">
      <g id="Group_21" data-name="Group 21" transform="translate(-72 -2985)">
        <g id="Folder" transform="translate(324 3182)">
          <path id="Path_178" data-name="Path 178" class="cls-7" d="M0,5.469V.492A.512.512,0,0,1,.156.13.493.493,0,0,1,.492,0H3.369a.294.294,0,0,1,.207.078.348.348,0,0,1,.156.181l.259.726h3.5a.512.512,0,0,1,.363.156.471.471,0,0,1,.156.363V5.495a.512.512,0,0,1-.156.363.471.471,0,0,1-.363.156h-7A.512.512,0,0,1,.13,5.857.7.7,0,0,1,0,5.469Z" transform="translate(0 2)"/>
          <rect id="Rectangle_1447" data-name="Rectangle 1447" class="cls-1" width="10" height="10" transform="translate(0)"/>
        </g>
        <g id="Rectangle_1474-2" data-name="Rectangle 1474" class="cls-8" transform="translate(318 3177)">
          <rect class="cls-17" width="20" height="20" rx="1"/>
          <rect class="cls-1" x="0.5" y="0.5" width="19" height="19" rx="0.5"/>
        </g>
      </g>
      <text id="Organisation" class="cls-9" transform="translate(248 217)"><tspan x="0" y="0">Organisation</tspan></text>
    </g>
    <g id="sndpg_box1-5" data-name="sndpg_box1" transform="translate(571 -681)">
      <g class="cls-21" transform="matrix(1, 0, 0, 1, -492, 738)">
        <rect id="sndpg_box1-6" data-name="sndpg_box1" class="cls-4" width="40" height="40" transform="translate(72 14)"/>
      </g>
    </g>
    <g id="sndpg_icon" transform="translate(159.861 81.597)">
      <g id="Rectangle_455" data-name="Rectangle 455" class="cls-10">
        <rect class="cls-17" width="24.625" height="16.75" rx="1"/>
        <rect class="cls-1" x="0.15" y="0.15" width="24.325" height="16.45" rx="0.85"/>
      </g>
      <g id="Rectangle_456" data-name="Rectangle 456" class="cls-11" transform="translate(0 17.75)">
        <rect class="cls-17" width="24.625" height="2" rx="1"/>
        <rect class="cls-1" x="0.25" y="0.25" width="24.125" height="1.5" rx="0.75"/>
      </g>
      <text id="XD" class="cls-12" transform="translate(8 11)"><tspan x="0" y="0">XD</tspan></text>
    </g>
    <g id="Group_31" data-name="Group 31">
      <rect id="Rectangle_1481" data-name="Rectangle 1481" class="cls-13" width="15" height="2" rx="1" transform="translate(214 63)"/>
      <rect id="Rectangle_1482" data-name="Rectangle 1482" class="cls-13" width="20" height="2" rx="1" transform="translate(214 66)"/>
      <rect id="Rectangle_1483" data-name="Rectangle 1483" class="cls-13" width="15" height="2" rx="1" transform="translate(214 69)"/>
    </g>
    <g class="cls-20" transform="matrix(1, 0, 0, 1, 79, 57)">
      <rect id="Rectangle_1484-2" data-name="Rectangle 1484" class="cls-2" width="59" height="16" transform="translate(109 103)"/>
    </g>
    <text id="Adobe_xd_designs" data-name="Adobe xd designs" class="cls-14" transform="translate(204 168)"><tspan x="0" y="0">Adobe xd designs</tspan></text>
    <g class="cls-19" transform="matrix(1, 0, 0, 1, 79, 57)">
      <rect id="Rectangle_1485-2" data-name="Rectangle 1485" class="cls-2" width="59" height="16" transform="translate(109 124)"/>
    </g>
    <text id="Figma_designs" data-name="Figma designs" class="cls-14" transform="translate(204 190)"><tspan x="0" y="0">Figma designs</tspan></text>
    <g class="cls-18" transform="matrix(1, 0, 0, 1, 79, 57)">
      <rect id="Rectangle_1486-2" data-name="Rectangle 1486" class="cls-2" width="59" height="16" transform="translate(109 146)"/>
    </g>
    <text id="Adobe_illustration_" data-name="Adobe illustration " class="cls-14" transform="translate(200 213)"><tspan x="0" y="0">Adobe illustration </tspan></text>
    <g id="Options" class="cls-15" transform="translate(125 65)">
      <path id="Union_1" data-name="Union 1" class="cls-16" d="M0,13a1,1,0,1,1,1,1A1,1,0,0,1,0,13ZM0,7A1,1,0,1,1,1,8,1,1,0,0,1,0,7ZM0,1A1,1,0,1,1,1,2,1,1,0,0,1,0,1Z"/>
    </g>
  </g>
</svg>
