<svg xmlns="http://www.w3.org/2000/svg" xmlns:xlink="http://www.w3.org/1999/xlink" width="201" height="185" viewBox="0 0 201 185"><defs><style>.a,.g{fill:none;}.b,.d,.e{fill:#0b4d5e;}.b{stroke:#967675;}.c{fill:#967675;opacity:0.99;}.e,.g{stroke:#fff;}.e{stroke-width:0.3px;}.f,.h,.i{fill:#fff;}.f{font-size:11px;font-family:SegoeUI-Bold, Segoe UI;font-weight:700;}.h{font-size:3px;}.h,.i{font-family:SegoeUI, Segoe UI;}.i{font-size:5px;}.j{clip-path:url(#k);}.k,.l{fill:#ecedee;}.l{fill-rule:evenodd;}.m{stroke:none;}.n{filter:url(#i);}.o{filter:url(#g);}.p{filter:url(#e);}.q{filter:url(#c);}.r{filter:url(#a);}</style><filter id="a" x="28" y="0" width="120" height="176.5" filterUnits="userSpaceOnUse"><feOffset dx="-5" dy="5" input="SourceAlpha"/><feGaussianBlur stdDeviation="3" result="b"/><feFlood flood-opacity="0.678"/><feComposite operator="in" in2="b"/><feComposite in="SourceGraphic"/></filter><filter id="c" x="0" y="60" width="200" height="46" filterUnits="userSpaceOnUse"><feOffset dx="10" dy="5" input="SourceAlpha"/><feGaussianBlur stdDeviation="3" result="d"/><feFlood/><feComposite operator="in" in2="d"/><feComposite in="SourceGraphic"/></filter><filter id="e" x="118" y="99" width="83" height="86" filterUnits="userSpaceOnUse"><feOffset dx="15" dy="10" input="SourceAlpha"/><feGaussianBlur stdDeviation="3" result="f"/><feFlood flood-opacity="0.761"/><feComposite operator="in" in2="f"/><feComposite in="SourceGraphic"/></filter><filter id="g" x="0" y="12" width="139" height="40" filterUnits="userSpaceOnUse"><feOffset dx="15" dy="10" input="SourceAlpha"/><feGaussianBlur stdDeviation="3" result="h"/><feFlood flood-opacity="0.761"/><feComposite operator="in" in2="h"/><feComposite in="SourceGraphic"/></filter><filter id="i" x="58" y="10" width="58" height="58" filterUnits="userSpaceOnUse"><feOffset dx="-5" dy="5" input="SourceAlpha"/><feGaussianBlur stdDeviation="3" result="j"/><feFlood flood-opacity="0.678"/><feComposite operator="in" in2="j"/><feComposite in="SourceGraphic"/></filter><clipPath id="k"><rect class="a" width="16" height="16"/></clipPath></defs><g transform="translate(-79 -504)"><g class="b" transform="translate(100 620)"><rect class="m" width="78" height="65"/><rect class="a" x="0.5" y="0.5" width="77" height="64"/></g><g transform="translate(541 -244)"><g class="r" transform="matrix(1, 0, 0, 1, -462, 748)"><rect class="c" width="102" height="158.5" transform="translate(42 4)"/></g></g><g class="q" transform="matrix(1, 0, 0, 1, 79, 504)"><rect class="d" width="181" height="28" transform="translate(0 64)"/></g><g class="p" transform="matrix(1, 0, 0, 1, 79, 504)"><g class="e" transform="translate(118 99)"><rect class="m" width="59" height="67"/><rect class="a" x="0.15" y="0.15" width="58.7" height="66.7"/></g></g><text class="f" transform="translate(127 589)"><tspan x="0" y="0">Site Management</tspan></text><g transform="translate(-76 453)"><g transform="translate(-427 -3014)"><g class="g" transform="translate(632 3177)"><rect class="m" width="19" height="20" rx="2"/><rect class="a" x="0.5" y="0.5" width="18" height="19" rx="1.5"/></g></g><text class="h" transform="translate(209 188)"><tspan x="0" y="0">Security</tspan></text></g><g class="o" transform="matrix(1, 0, 0, 1, 79, 504)"><path class="d" d="M0,0H115V21H0L12.364,10.475Z" transform="translate(0 12)"/></g><g transform="translate(-82 424)"><g transform="translate(-72 -2985)"><g class="g" transform="translate(318 3177)"><rect class="m" width="20" height="20" rx="1"/><rect class="a" x="0.5" y="0.5" width="19" height="19" rx="0.5"/></g></g><text class="h" transform="translate(248 217)"><tspan x="0" y="0">Scalability</tspan></text></g><g transform="translate(571 -234)"><g class="n" transform="matrix(1, 0, 0, 1, -492, 738)"><rect class="c" width="40" height="40" transform="translate(72 14)"/></g></g><text class="i" transform="translate(204 615)"><tspan x="0" y="0">Version control</tspan></text><text class="i" transform="translate(204 637)"><tspan x="0" y="0">Modern Languages</tspan></text><text class="i" transform="translate(206 656)"><tspan x="0" y="0">Hosting</tspan><tspan x="0" y="6"></tspan></text><g class="j" transform="translate(165 529)"><path class="k" d="M0,0V4H16V0ZM3,3H1V1H3ZM0,10H16V6H0ZM1,7H3V9H1ZM0,16H16V12H0Zm1-3H3v2H1Z"/></g><path class="k" d="M7.5,10V2.5H10V10ZM3.751,10V0h2.5V10ZM0,10V5H2.5v5Z" transform="translate(169 620)"/><rect class="a" width="10" height="10" transform="translate(133 620)"/><path class="l" d="M4,5A1.2,1.2,0,0,1,5.143,6.25,1.2,1.2,0,0,1,4,7.5,1.2,1.2,0,0,1,2.857,6.25,1.2,1.2,0,0,1,4,5ZM4,1.25A1.2,1.2,0,0,0,2.857,2.5H5.143A1.2,1.2,0,0,0,4,1.25ZM6.857,10H1.143A1.2,1.2,0,0,1,0,8.75v-5A1.2,1.2,0,0,1,1.143,2.5h.571A2.407,2.407,0,0,1,4,0,2.407,2.407,0,0,1,6.286,2.5h.571A1.2,1.2,0,0,1,8,3.75v5A1.2,1.2,0,0,1,6.857,10Z" transform="translate(134 620)"/></g></svg>