<svg xmlns="http://www.w3.org/2000/svg" xmlns:xlink="http://www.w3.org/1999/xlink" width="372" height="437" viewBox="0 0 372 437">
  <defs>
    <style>
      .cls-1, .cls-6 {
        fill: none;
      }

      .cls-2 {
        fill: rgba(0,0,0,0.16);
      }

      .cls-3 {
        fill: rgba(11,77,94,0.64);
      }

      .cls-4, .cls-5, .cls-7 {
        fill: #fff;
      }

      .cls-4 {
        font-size: 29px;
        font-family: SegoeUI-Bold, Segoe UI;
        font-weight: 700;
      }

      .cls-5 {
        font-size: 15px;
      }

      .cls-5, .cls-7 {
        font-family: SegoeUI, Segoe UI;
      }

      .cls-6 {
        stroke: #fff;
      }

      .cls-7 {
        font-size: 3px;
      }

      .cls-8, .cls-9 {
        fill: #ecedee;
      }

      .cls-9 {
        fill-rule: evenodd;
      }

      .cls-10 {
        clip-path: url(#clip-path);
      }

      .cls-11, .cls-12 {
        stroke: none;
      }

      .cls-12 {
        fill: rgba(255,189,57,0);
      }
    </style>
    <clipPath id="clip-path">
      <rect class="cls-1" width="43.333" height="40"/>
    </clipPath>
  </defs>
  <g id="uiservices3" transform="translate(-899 -193.03)">
    <g id="Path_284" data-name="Path 284" class="cls-2" transform="translate(899 193.03)">
      <path class="cls-11" d="M0,0H372V437H0Z"/>
      <path class="cls-12" d="M 1 1 L 1 436 L 371 436 L 371 1 L 1 1 M 0 0 L 372 0 L 372 437 L 0 437 L 0 0 Z"/>
    </g>
    <rect id="Rectangle_1479" data-name="Rectangle 1479" class="cls-3" width="78" height="247" transform="translate(934 380)"/>
    <text id="App_Development" data-name="App Development" class="cls-4" transform="translate(961 333)"><tspan x="0" y="0">App Development</tspan></text>
    <text id="Flutter_Apps" data-name="Flutter Apps" class="cls-5" transform="translate(1129 434)"><tspan x="0" y="0">Flutter Apps</tspan></text>
    <text id="Cross_Platform" data-name="Cross Platform" class="cls-5" transform="translate(1113 386)"><tspan x="0" y="0">Cross Platform</tspan></text>
    <text id="Lite" class="cls-5" transform="translate(1185 471)"><tspan x="0" y="0">Lite</tspan></text>
    <g id="Group_37" data-name="Group 37" transform="translate(-60 -4)">
      <g id="Group_29" data-name="Group 29" transform="translate(812 188)">
        <g id="Group_21" data-name="Group 21" transform="translate(-72 -2985)">
          <g id="Rectangle_1474" data-name="Rectangle 1474" class="cls-6" transform="translate(318 3177)">
            <rect class="cls-11" width="20" height="20" rx="1"/>
            <rect class="cls-1" x="0.5" y="0.5" width="19" height="19" rx="0.5"/>
          </g>
        </g>
        <text id="Scalability" class="cls-7" transform="translate(248 217)"><tspan x="0" y="0">Scalability</tspan></text>
      </g>
      <path id="Union_43" data-name="Union 43" class="cls-8" d="M7.5,10V2.5H10V10ZM3.751,10V0h2.5V10ZM0,10V5H2.5v5Z" transform="translate(1063 384)"/>
    </g>
    <rect id="Rectangle_118" data-name="Rectangle 118" class="cls-1" width="10" height="10" transform="translate(1027 384)"/>
    <g id="Group_36" data-name="Group 36" transform="translate(-60 -4)">
      <g id="Group_30" data-name="Group 30" transform="translate(818 217)">
        <g id="Group_28" data-name="Group 28" transform="translate(-427 -3014)">
          <g id="Rectangle_1474-2" data-name="Rectangle 1474" class="cls-6" transform="translate(632 3177)">
            <rect class="cls-11" width="19" height="20" rx="2"/>
            <rect class="cls-1" x="0.5" y="0.5" width="18" height="19" rx="1.5"/>
          </g>
        </g>
        <text id="Security" class="cls-7" transform="translate(209 188)"><tspan x="0" y="0">Security</tspan></text>
      </g>
      <path id="Path_49" data-name="Path 49" class="cls-9" d="M4,5A1.2,1.2,0,0,1,5.143,6.25,1.2,1.2,0,0,1,4,7.5,1.2,1.2,0,0,1,2.857,6.25,1.2,1.2,0,0,1,4,5ZM4,1.25A1.2,1.2,0,0,0,2.857,2.5H5.143A1.2,1.2,0,0,0,4,1.25ZM6.857,10H1.143A1.2,1.2,0,0,1,0,8.75v-5A1.2,1.2,0,0,1,1.143,2.5h.571A2.407,2.407,0,0,1,4,0,2.407,2.407,0,0,1,6.286,2.5h.571A1.2,1.2,0,0,1,8,3.75v5A1.2,1.2,0,0,1,6.857,10Z" transform="translate(1028 384)"/>
    </g>
    <g id="Icon_Products" data-name="Icon Products" class="cls-10" transform="translate(1064 223)">
      <path id="Union_9" data-name="Union 9" class="cls-8" d="M38.167,40V0h5.452V40ZM0,40V0H5.452V40ZM29.989,27.5V0h5.452V27.5Zm-13.633,0V0H27.263V27.5Zm-8.178,0V0H13.63V27.5Z" transform="translate(0)"/>
    </g>
  </g>
</svg>
