<svg xmlns="http://www.w3.org/2000/svg" xmlns:xlink="http://www.w3.org/1999/xlink" width="372" height="437" viewBox="0 0 372 437">
  <defs>
    <style>
      .cls-1, .cls-8 {
        fill: none;
      }

      .cls-2 {
        fill: rgba(0,0,0,0.16);
      }

      .cls-3 {
        fill: rgba(11,77,94,0.64);
      }

      .cls-4, .cls-5, .cls-9 {
        fill: #fff;
      }

      .cls-4 {
        font-size: 29px;
        font-family: SegoeUI-Bold, Segoe UI;
        font-weight: 700;
      }

      .cls-5 {
        font-size: 15px;
      }

      .cls-5, .cls-9 {
        font-family: SegoeUI, Segoe UI;
      }

      .cls-6 {
        clip-path: url(#clip-path);
      }

      .cls-10, .cls-7 {
        fill: #ecedee;
      }

      .cls-8 {
        stroke: #fff;
      }

      .cls-9 {
        font-size: 3px;
      }

      .cls-10 {
        fill-rule: evenodd;
      }

      .cls-11, .cls-12 {
        stroke: none;
      }

      .cls-12 {
        fill: rgba(255,189,57,0);
      }
    </style>
    <clipPath id="clip-path">
      <rect class="cls-1" width="50" height="40"/>
    </clipPath>
  </defs>
  <g id="uiservices4" transform="translate(-899 -193.03)">
    <g id="Path_284" data-name="Path 284" class="cls-2" transform="translate(899 193.03)">
      <path class="cls-11" d="M0,0H372V437H0Z"/>
      <path class="cls-12" d="M 1 1 L 1 436 L 371 436 L 371 1 L 1 1 M 0 0 L 372 0 L 372 437 L 0 437 L 0 0 Z"/>
    </g>
    <rect id="Rectangle_1479" data-name="Rectangle 1479" class="cls-3" width="78" height="247" transform="translate(934 380)"/>
    <text id="Site_Management" data-name="Site Management" class="cls-4" transform="translate(948 333)"><tspan x="0" y="0">Site Management</tspan></text>
    <text id="Version_control" data-name="Version control" class="cls-5" transform="translate(1114 392)"><tspan x="0" y="0">Version control</tspan></text>
    <text id="Modern_Languages" data-name="Modern Languages" class="cls-5" transform="translate(1086 433)"><tspan x="0" y="0">Modern Languages</tspan></text>
    <text id="Hosting_" data-name="Hosting
" class="cls-5" transform="translate(1162 470)"><tspan x="0" y="0">Hosting</tspan><tspan x="0" y="20"></tspan></text>
    <g id="Sections" class="cls-6" transform="translate(1042 219)">
      <path id="Path_261" data-name="Path 261" class="cls-7" d="M0,0V10H50V0ZM9.375,7.5H3.125v-5h6.25ZM0,25H50V15H0Zm3.125-7.5s-30.677.015,6.25,0,36.854,0,36.854,0v5s3.8-.109-5.417,0-14.484-.129-31.438,0c-36.854.28-6.25,0-6.25,0ZM0,40H50V30H0Zm3.125-7.5h6.25v5H3.125Z"/>
    </g>
    <g id="Group_37" data-name="Group 37" transform="translate(-60 -4)">
      <g id="Group_29" data-name="Group 29" transform="translate(812 188)">
        <g id="Group_21" data-name="Group 21" transform="translate(-72 -2985)">
          <g id="Rectangle_1474" data-name="Rectangle 1474" class="cls-8" transform="translate(318 3177)">
            <rect class="cls-11" width="20" height="20" rx="1"/>
            <rect class="cls-1" x="0.5" y="0.5" width="19" height="19" rx="0.5"/>
          </g>
        </g>
        <text id="Scalability" class="cls-9" transform="translate(248 217)"><tspan x="0" y="0">Scalability</tspan></text>
      </g>
      <path id="Union_43" data-name="Union 43" class="cls-7" d="M7.5,10V2.5H10V10ZM3.751,10V0h2.5V10ZM0,10V5H2.5v5Z" transform="translate(1063 384)"/>
    </g>
    <rect id="Rectangle_118" data-name="Rectangle 118" class="cls-1" width="10" height="10" transform="translate(1027 384)"/>
    <g id="Group_36" data-name="Group 36" transform="translate(-60 -4)">
      <g id="Group_30" data-name="Group 30" transform="translate(818 217)">
        <g id="Group_28" data-name="Group 28" transform="translate(-427 -3014)">
          <g id="Rectangle_1474-2" data-name="Rectangle 1474" class="cls-8" transform="translate(632 3177)">
            <rect class="cls-11" width="19" height="20" rx="2"/>
            <rect class="cls-1" x="0.5" y="0.5" width="18" height="19" rx="1.5"/>
          </g>
        </g>
        <text id="Security" class="cls-9" transform="translate(209 188)"><tspan x="0" y="0">Security</tspan></text>
      </g>
      <path id="Path_49" data-name="Path 49" class="cls-10" d="M4,5A1.2,1.2,0,0,1,5.143,6.25,1.2,1.2,0,0,1,4,7.5,1.2,1.2,0,0,1,2.857,6.25,1.2,1.2,0,0,1,4,5ZM4,1.25A1.2,1.2,0,0,0,2.857,2.5H5.143A1.2,1.2,0,0,0,4,1.25ZM6.857,10H1.143A1.2,1.2,0,0,1,0,8.75v-5A1.2,1.2,0,0,1,1.143,2.5h.571A2.407,2.407,0,0,1,4,0,2.407,2.407,0,0,1,6.286,2.5h.571A1.2,1.2,0,0,1,8,3.75v5A1.2,1.2,0,0,1,6.857,10Z" transform="translate(1028 384)"/>
    </g>
  </g>
</svg>
